<?xml version="1.0" encoding="iso-8859-1"?>
<!-- Generator: Adobe Illustrator 19.0.0, SVG Export Plug-In . SVG Version: 6.00 Build 0)  -->
<svg version="1.1" id="Capa_1" xmlns="http://www.w3.org/2000/svg" xmlns:xlink="http://www.w3.org/1999/xlink" x="0px" y="0px"
	 viewBox="0 0 512 512" style="enable-background:new 0 0 512 512;" xml:space="preserve">
<g>
	<g>
		<path d="M371.624,134.341c-15.557-15.568-34.783-25.919-55.605-31.132v0.004c-32.305-8.1-62.432-3.286-89.888,12.922
			l60.635,60.643c14.211,14.211-7.47,34.952-21.211,21.211l-63.636-63.644c-14.385,14.385-40.851,58.658-51.193,76.08l51.196,51.196
			c14.211,14.211-7.47,34.952-21.211,21.211l-45.646-45.646c-11.621,20.253-24.055,42.281-45.507,81.788l27.506,27.506
			c14.211,14.211-7.47,34.952-21.211,21.211L74.692,346.53C48.36,395.613,20.182,453.834,1.653,490.19
			C-3.433,500.134,3.842,512,15.011,512c9.301,0,192.273-105.068,200.378-109.631l-33.726-33.726
			c-13.945-13.945,7.151-35.271,21.211-21.211l39.582,39.582c38.832-22.214,63.285-37.127,79.722-47.558l-55.671-55.671
			c-13.945-13.945,7.151-35.271,21.211-21.211l60.042,60.042c34.648-23.879,54.276-49.496,57.969-93.224
			C408.713,191.761,394.807,157.532,371.624,134.341z"/>
	</g>
</g>
<g>
	<g>
		<path d="M468.948,99.917c12.832-17.593,11.323-42.48-4.541-58.345c-16.04-16.055-41.353-17.432-59.004-4.043
			C401.829,16.26,383.284,0,361.019,0c-24.814,0-45,20.186-45,45v27.054c28.925,5.684,55.518,19.766,76.816,41.076
			c21.758,21.764,35.359,48.618,40.926,76.758l33.268-0.029c24.887,0,45.001-20.142,44.971-45.029
			C511.97,120.518,492.825,100.878,468.948,99.917z"/>
	</g>
</g>
<g>
</g>
<g>
</g>
<g>
</g>
<g>
</g>
<g>
</g>
<g>
</g>
<g>
</g>
<g>
</g>
<g>
</g>
<g>
</g>
<g>
</g>
<g>
</g>
<g>
</g>
<g>
</g>
<g>
</g>
</svg>
